<mxfile host="Electron" modified="2024-06-12T07:59:50.126Z" agent="Mozilla/5.0 (Windows NT 10.0; Win64; x64) AppleWebKit/537.36 (KHTML, like Gecko) draw.io/24.5.1 Chrome/124.0.6367.207 Electron/30.0.6 Safari/537.36" etag="ed4p9z4cFUi4lo6kCTBP" version="24.5.1" type="device">
  <diagram name="Seite-1" id="605h7gCvtUyfB_fElwwN">
    <mxGraphModel dx="1434" dy="836" grid="1" gridSize="10" guides="1" tooltips="1" connect="1" arrows="1" fold="1" page="1" pageScale="1" pageWidth="827" pageHeight="1169" math="0" shadow="0">
      <root>
        <mxCell id="0" />
        <mxCell id="1" parent="0" />
        <mxCell id="P4s8YWIdnVYV0RGGkpdB-20" value="" style="group" vertex="1" connectable="0" parent="1">
          <mxGeometry x="130" y="420" width="590" height="110" as="geometry" />
        </mxCell>
        <mxCell id="P4s8YWIdnVYV0RGGkpdB-10" value="App" style="rounded=0;whiteSpace=wrap;html=1;movable=1;resizable=1;rotatable=1;deletable=1;editable=1;locked=0;connectable=1;" vertex="1" parent="P4s8YWIdnVYV0RGGkpdB-20">
          <mxGeometry y="10" width="120" height="60" as="geometry" />
        </mxCell>
        <mxCell id="P4s8YWIdnVYV0RGGkpdB-11" value="Artifactory" style="rounded=1;whiteSpace=wrap;html=1;movable=1;resizable=1;rotatable=1;deletable=1;editable=1;locked=0;connectable=1;" vertex="1" parent="P4s8YWIdnVYV0RGGkpdB-20">
          <mxGeometry x="240" y="10" width="120" height="60" as="geometry" />
        </mxCell>
        <mxCell id="P4s8YWIdnVYV0RGGkpdB-12" value="" style="shape=flexArrow;endArrow=classic;html=1;rounded=0;entryX=0;entryY=0.5;entryDx=0;entryDy=0;movable=1;resizable=1;rotatable=1;deletable=1;editable=1;locked=0;connectable=1;" edge="1" parent="P4s8YWIdnVYV0RGGkpdB-20" target="P4s8YWIdnVYV0RGGkpdB-11">
          <mxGeometry width="50" height="50" relative="1" as="geometry">
            <mxPoint x="120" y="40" as="sourcePoint" />
            <mxPoint x="170" y="-10" as="targetPoint" />
          </mxGeometry>
        </mxCell>
        <mxCell id="P4s8YWIdnVYV0RGGkpdB-14" value="pipeline" style="edgeLabel;html=1;align=center;verticalAlign=middle;resizable=1;points=[];movable=1;rotatable=1;deletable=1;editable=1;locked=0;connectable=1;" vertex="1" connectable="0" parent="P4s8YWIdnVYV0RGGkpdB-12">
          <mxGeometry x="-0.3333" y="-4" relative="1" as="geometry">
            <mxPoint as="offset" />
          </mxGeometry>
        </mxCell>
        <mxCell id="P4s8YWIdnVYV0RGGkpdB-15" value="Docker" style="shape=cube;whiteSpace=wrap;html=1;boundedLbl=1;backgroundOutline=1;darkOpacity=0.05;darkOpacity2=0.1;movable=1;resizable=1;rotatable=1;deletable=1;editable=1;locked=0;connectable=1;" vertex="1" parent="P4s8YWIdnVYV0RGGkpdB-20">
          <mxGeometry x="470" width="120" height="80" as="geometry" />
        </mxCell>
        <mxCell id="P4s8YWIdnVYV0RGGkpdB-16" value="" style="shape=flexArrow;endArrow=classic;html=1;rounded=0;entryX=-0.008;entryY=0.463;entryDx=0;entryDy=0;entryPerimeter=0;exitX=1;exitY=0.5;exitDx=0;exitDy=0;movable=1;resizable=1;rotatable=1;deletable=1;editable=1;locked=0;connectable=1;" edge="1" parent="P4s8YWIdnVYV0RGGkpdB-20" source="P4s8YWIdnVYV0RGGkpdB-11" target="P4s8YWIdnVYV0RGGkpdB-15">
          <mxGeometry width="50" height="50" relative="1" as="geometry">
            <mxPoint x="360" y="50" as="sourcePoint" />
            <mxPoint x="410" as="targetPoint" />
          </mxGeometry>
        </mxCell>
        <mxCell id="P4s8YWIdnVYV0RGGkpdB-17" value="deploy" style="text;html=1;align=center;verticalAlign=middle;whiteSpace=wrap;rounded=0;movable=1;resizable=1;rotatable=1;deletable=1;editable=1;locked=0;connectable=1;" vertex="1" parent="P4s8YWIdnVYV0RGGkpdB-20">
          <mxGeometry x="135" y="60" width="60" height="30" as="geometry" />
        </mxCell>
        <mxCell id="P4s8YWIdnVYV0RGGkpdB-18" value="hier lagern die Images" style="text;html=1;align=center;verticalAlign=middle;whiteSpace=wrap;rounded=0;movable=1;resizable=1;rotatable=1;deletable=1;editable=1;locked=0;connectable=1;" vertex="1" parent="P4s8YWIdnVYV0RGGkpdB-20">
          <mxGeometry x="270" y="80" width="70" height="30" as="geometry" />
        </mxCell>
        <mxCell id="P4s8YWIdnVYV0RGGkpdB-19" value="holt den neueste Image von Artifactory" style="text;html=1;align=center;verticalAlign=middle;whiteSpace=wrap;rounded=0;movable=1;resizable=1;rotatable=1;deletable=1;editable=1;locked=0;connectable=1;" vertex="1" parent="P4s8YWIdnVYV0RGGkpdB-20">
          <mxGeometry x="355" y="50" width="110" height="60" as="geometry" />
        </mxCell>
        <mxCell id="P4s8YWIdnVYV0RGGkpdB-21" value="" style="group" vertex="1" connectable="0" parent="1">
          <mxGeometry x="210" y="190" width="450" height="160" as="geometry" />
        </mxCell>
        <mxCell id="P4s8YWIdnVYV0RGGkpdB-1" value="Web Anwendung" style="rounded=1;whiteSpace=wrap;html=1;" vertex="1" parent="P4s8YWIdnVYV0RGGkpdB-21">
          <mxGeometry x="220" y="10" width="120" height="60" as="geometry" />
        </mxCell>
        <mxCell id="P4s8YWIdnVYV0RGGkpdB-2" value="DB&amp;nbsp;" style="shape=cylinder3;whiteSpace=wrap;html=1;boundedLbl=1;backgroundOutline=1;size=15;" vertex="1" parent="P4s8YWIdnVYV0RGGkpdB-21">
          <mxGeometry x="390" width="60" height="80" as="geometry" />
        </mxCell>
        <mxCell id="P4s8YWIdnVYV0RGGkpdB-3" value="" style="endArrow=classic;html=1;rounded=0;exitX=1;exitY=0.5;exitDx=0;exitDy=0;entryX=0;entryY=0.5;entryDx=0;entryDy=0;entryPerimeter=0;" edge="1" parent="P4s8YWIdnVYV0RGGkpdB-21" source="P4s8YWIdnVYV0RGGkpdB-1" target="P4s8YWIdnVYV0RGGkpdB-2">
          <mxGeometry width="50" height="50" relative="1" as="geometry">
            <mxPoint x="280" y="50" as="sourcePoint" />
            <mxPoint x="386" y="50" as="targetPoint" />
          </mxGeometry>
        </mxCell>
        <mxCell id="P4s8YWIdnVYV0RGGkpdB-4" value="mobile&amp;nbsp;&lt;div&gt;Frondend&lt;/div&gt;" style="whiteSpace=wrap;html=1;aspect=fixed;" vertex="1" parent="P4s8YWIdnVYV0RGGkpdB-21">
          <mxGeometry width="80" height="80" as="geometry" />
        </mxCell>
        <mxCell id="P4s8YWIdnVYV0RGGkpdB-5" value="" style="shape=flexArrow;endArrow=classic;startArrow=classic;html=1;rounded=0;exitX=1;exitY=0.5;exitDx=0;exitDy=0;entryX=0;entryY=0.5;entryDx=0;entryDy=0;" edge="1" parent="P4s8YWIdnVYV0RGGkpdB-21" source="P4s8YWIdnVYV0RGGkpdB-4" target="P4s8YWIdnVYV0RGGkpdB-1">
          <mxGeometry width="100" height="100" relative="1" as="geometry">
            <mxPoint x="80" y="50" as="sourcePoint" />
            <mxPoint x="180" y="-50" as="targetPoint" />
          </mxGeometry>
        </mxCell>
        <mxCell id="P4s8YWIdnVYV0RGGkpdB-6" value="auth" style="text;html=1;align=center;verticalAlign=middle;whiteSpace=wrap;rounded=0;" vertex="1" parent="P4s8YWIdnVYV0RGGkpdB-21">
          <mxGeometry x="110" y="10" width="60" height="30" as="geometry" />
        </mxCell>
        <mxCell id="P4s8YWIdnVYV0RGGkpdB-7" value="Java / Spring Boot" style="text;html=1;align=center;verticalAlign=middle;whiteSpace=wrap;rounded=0;" vertex="1" parent="P4s8YWIdnVYV0RGGkpdB-21">
          <mxGeometry x="230" y="90" width="100" height="30" as="geometry" />
        </mxCell>
        <mxCell id="P4s8YWIdnVYV0RGGkpdB-8" value="MySQL | PostgreSQL" style="text;html=1;align=center;verticalAlign=middle;whiteSpace=wrap;rounded=0;" vertex="1" parent="P4s8YWIdnVYV0RGGkpdB-21">
          <mxGeometry x="370" y="90" width="60" height="30" as="geometry" />
        </mxCell>
        <mxCell id="P4s8YWIdnVYV0RGGkpdB-9" value="Actor" style="shape=umlActor;verticalLabelPosition=bottom;verticalAlign=top;html=1;outlineConnect=0;" vertex="1" parent="P4s8YWIdnVYV0RGGkpdB-21">
          <mxGeometry x="20" y="100" width="30" height="60" as="geometry" />
        </mxCell>
      </root>
    </mxGraphModel>
  </diagram>
</mxfile>
